<svg xmlns="http://www.w3.org/2000/svg" viewBox="0 0 444.17 425.37"><defs><style>.cls-1,.cls-2,.cls-3{fill:none;stroke-miterlimit:10;}.cls-1,.cls-3{stroke:#002318;}.cls-1{stroke-width:15.5px;}.cls-2{stroke:#54c89c;stroke-width:8.86px;}.cls-3{stroke-width:2.21px;}</style></defs><g id="Layer_4" data-name="Layer 4"><polyline class="cls-1" points="311.13 214.9 294.28 252.83 285.21 236.57 275.88 251.81 272.31 214.73 240.44 245.71"/><line class="cls-1" x1="110.46" y1="197.28" x2="352.61" y2="197.28"/><polyline class="cls-1" points="318.44 181.16 354.77 197.17 318.44 211.76"/><polyline class="cls-1" points="236.39 258 201.21 234.66 231.8 225.74 213.52 212.57 199.04 254.54 169.32 233.21 193.02 226.33 176.42 212.34 161.47 245.42 138.8 164.62 104.17 264.12"/><polygon class="cls-1" points="239.51 253.9 263.27 242.36 265.48 217.92 244.47 210.11 240 249.56 239.51 253.9"/></g><g id="Layer_2" data-name="Layer 2"><polyline class="cls-2" points="311.13 214.9 294.28 252.83 285.21 236.57 275.88 251.81 272.31 214.73 240.44 245.71"/><line class="cls-2" x1="110.46" y1="197.28" x2="352.61" y2="197.28"/><polyline class="cls-2" points="318.44 181.16 354.77 197.17 318.44 211.76"/><polyline class="cls-2" points="236.39 258 201.21 234.66 231.8 225.74 213.52 212.57 199.04 254.54 167.34 233.78 193.02 226.33 176.42 212.34 160.82 249.03 138.8 164.62 104.17 264.12"/><polygon class="cls-2" points="239.51 253.9 263.27 242.36 265.48 217.92 244.47 210.11 240 249.56 239.51 253.9"/></g><g id="Layer_3" data-name="Layer 3"><polyline class="cls-3" points="311.13 214.9 294.28 252.83 285.21 236.57 275.88 251.81 272.31 214.73 240.44 245.71"/><line class="cls-3" x1="110.46" y1="197.28" x2="352.61" y2="197.28"/><polyline class="cls-3" points="318.44 181.16 354.77 197.17 318.44 211.76"/><polyline class="cls-3" points="236.39 258 201.21 234.66 231.8 225.74 213.52 212.57 199.04 254.54 167.34 233.78 193.02 226.33 176.42 212.34 160.43 251.97 138.8 164.62 104.17 264.12"/><polygon class="cls-3" points="239.51 253.9 263.27 242.36 265.48 217.92 244.47 210.11 240 249.56 239.51 253.9"/></g></svg>